<svg id="Camada_1" data-name="Camada 1" xmlns="http://www.w3.org/2000/svg" viewBox="0 0 2513.57 596.83"><defs><style>.cls-1{fill:#fbc7c1;}.cls-2{fill:#f14733;}</style></defs><title>logotipo_costas</title><path class="cls-1" d="M432.92,1240.27l44.82,0S514.67,1319.47,656,1376.8c0,0,279.42.27,326.53,110.35,0,0,19.06,27.52,5.61,120.4L946.63,1650l-417.22,3.44-63.92-12.61-32.56-50.62Z" transform="translate(-243.43 -1056.59)"/><path class="cls-2" d="M924.37,1056.59H501.48a69.25,69.25,0,0,0-69.17,69.17v69h42.25v-69a27,27,0,0,1,26.92-26.93H924.37a27,27,0,0,1,26.93,26.93v69h42.24v-69A69.25,69.25,0,0,0,924.37,1056.59ZM951.3,1517v66.61a27,27,0,0,1-26.93,26.93H501.48a27,27,0,0,1-26.92-26.93V1517H432.31v66.61a69.25,69.25,0,0,0,69.17,69.17H924.37a69.25,69.25,0,0,0,69.17-69.17V1517Z" transform="translate(-243.43 -1056.59)"/><path class="cls-2" d="M312,1233.4h72.64v-41H312a68.65,68.65,0,0,0-68.57,68.56v225A68.65,68.65,0,0,0,312,1554.45h72.64v-41H312a27.55,27.55,0,0,1-27.53-27.53v-225A27.55,27.55,0,0,1,312,1233.4Z" transform="translate(-243.43 -1056.59)"/><path class="cls-2" d="M532.57,1300.35q35.82,0,58.47,25.14t22.64,65q0,39.8-22.64,64.94t-58.47,25.15c-24.56,0-44.59-8.26-58.56-24.79v20.94H432.88V1232.25l41.13.15-.14,89.91C488.06,1308.11,510.27,1300.35,532.57,1300.35ZM523.45,1440q19.93,0,32.78-14t12.84-35.61q0-21.66-12.84-35.62t-32.78-14q-20.28,0-33.12,14t-12.84,35.62q0,21.64,12.84,35.61T523.45,1440Z" transform="translate(-243.43 -1056.59)"/><path class="cls-2" d="M726.21,1300.69q45.28,0,68.77,28.46t17.74,76.65H684A38.31,38.31,0,0,0,699.35,1432q13,9.78,32.94,9.78,29.07,0,46.64-16.42l25,26.54q-27.72,29.34-73.33,29.33-42.25,0-67.25-24.44t-25-66q0-40.14,24.33-65.12T726.21,1300.69Zm1.35,38.07q-17.91,0-29.23,9.6t-13.68,26.71h85.83q-1.35-16.75-12.84-26.54T727.56,1338.76Z" transform="translate(-243.43 -1056.59)"/><path class="cls-2" d="M924.92,1300.69q45.29,0,68.77,28.46t17.74,76.65H882.68A38.33,38.33,0,0,0,898.05,1432q13,9.78,33,9.78,29.07,0,46.64-16.42l25,26.54q-27.72,29.34-73.34,29.33-42.24,0-67.25-24.44t-25-66q0-40.14,24.34-65.12T924.92,1300.69Zm1.35,38.07q-17.91,0-29.23,9.6t-13.69,26.71h85.84q-1.35-16.75-12.84-26.54T926.27,1338.76Z" transform="translate(-243.43 -1056.59)"/><path class="cls-2" d="M1135.45,1300.69q26.37,0,42.58,15.72l-19.6,36q-12.84-9.07-27-9.07-18.59,0-29.57,12.92c-7.33,8.61-16.8,20.19-16.8,35.78v84.6l-39.13.08V1304.19H1085l.08,22.64A62.66,62.66,0,0,1,1135.45,1300.69Z" transform="translate(-243.43 -1056.59)"/><path class="cls-2" d="M1406.14,1304.2l39,0-.09,172.52-38.95,0v-21.19c-14.2,16.53-35.48,25.06-59.81,25.06q-35.82,0-58.46-25.15t-22.65-64.94q0-39.81,22.65-65t58.46-25.14c24.55,0,45.94,8.68,59.91,25ZM1355.45,1440q20.28,0,33.12-14t12.84-35.61q0-21.66-12.84-35.62t-33.12-14q-19.93,0-32.78,14t-12.84,35.62q0,21.64,12.84,35.61T1355.45,1440Z" transform="translate(-243.43 -1056.59)"/><path class="cls-2" d="M1587.62,1300.69q32.1,0,51,21.48t18.92,58.14v96.37h-44.94V1383.1q0-19.9-9.63-30.9t-26.53-11c-12.17,0-27.85,3.67-35.29,12s-11.15,19.21-11.15,32.48l.18,91H1491V1304.19h39.17v20.71C1543.88,1309.3,1564.86,1300.69,1587.62,1300.69Z" transform="translate(-243.43 -1056.59)"/><path class="cls-2" d="M1825.87,1232.25l39,.06v244.43l-39,0v-20.32c-14,16.53-30.15,24.14-54.7,24.14q-35.82,0-58.46-25.15T1690,1390.44q0-39.81,22.65-65t58.46-25.14q33.45,0,54.75,21.3ZM1780.25,1440q20.26,0,33.11-14t12.85-35.61q0-21.66-12.85-35.62t-33.11-14q-19.95,0-32.79,14t-12.84,35.62q0,21.64,12.84,35.61T1780.25,1440Z" transform="translate(-243.43 -1056.59)"/><path class="cls-2" d="M2508.71,1232.17l39,0v244.43l-39,0V1456.3c-14,16.53-30.15,24.14-54.7,24.14q-35.83,0-58.47-25.14t-22.64-65q0-39.81,22.64-64.95t58.47-25.14q33.45,0,54.74,21.3Zm-45.62,207.77q20.28,0,33.12-14t12.84-35.62q0-21.64-12.84-35.61t-33.12-14q-20,0-32.78,14t-12.84,35.61q0,21.66,12.84,35.62T2463.09,1439.94Z" transform="translate(-243.43 -1056.59)"/><path class="cls-2" d="M2079.32,1480.53q-41.24,0-65.9-24.45t-24.67-65.64q0-40.51,24.84-65.3t65.06-24.79q37.17,0,64.2,26.88l-26,29q-14.86-15.37-36.49-15.37-21,0-34,13.79t-13,35.8q0,22,13,35.79t34,13.79q23,0,38.52-16.76l26.36,29.33Q2117.17,1480.54,2079.32,1480.53Z" transform="translate(-243.43 -1056.59)"/><path class="cls-2" d="M2316.55,1455.38q-24.66,25.15-65.56,25.15t-65.56-25.15q-24.66-25.14-24.67-64.94t24.67-65q24.68-25.14,65.56-25.14t65.56,25.14q24.67,25.14,24.67,65T2316.55,1455.38Zm-98.5-29.5Q2230.71,1440,2251,1440t33-14.14q12.67-14.14,12.68-35.44T2283.94,1355q-12.66-14.13-33-14.14T2218.05,1355q-12.68,14.15-12.68,35.45T2218.05,1425.88Z" transform="translate(-243.43 -1056.59)"/><path class="cls-2" d="M2669.36,1300.69q45.29,0,68.77,28.46t17.74,76.65H2627.12a38.33,38.33,0,0,0,15.37,26.19q13,9.78,33,9.78,29.07,0,46.64-16.42l25,26.54q-27.72,29.34-73.34,29.33-42.24,0-67.25-24.44t-25-66q0-40.14,24.34-65.12T2669.36,1300.69Zm1.35,38.07q-17.91,0-29.23,9.6t-13.69,26.71h85.84q-1.35-16.75-12.84-26.54T2670.71,1338.76Z" transform="translate(-243.43 -1056.59)"/></svg>